<svg width="196" height="35" viewBox="0 0 196 35" fill="none" xmlns="http://www.w3.org/2000/svg">
<path fill-rule="evenodd" clip-rule="evenodd" d="M78.2777 23.6995H75.012L70.7517 19.0059H68.0994V23.6995H65.3477V9.6189C66.508 9.6189 67.6643 9.62289 68.8205 9.62688C69.9768 9.63087 71.133 9.63486 72.2934 9.63486C75.7414 9.65083 77.5483 11.8699 77.5483 14.2965C77.5483 16.2281 76.6365 18.1758 73.8516 18.7186L78.2777 23.5238V23.6995ZM68.1131 12.1108V16.6127H72.3071C74.0642 16.6127 74.8102 15.4952 74.8102 14.3617C74.8102 13.2442 74.0311 12.1108 72.3071 12.1108H68.1131ZM89.8256 13.8041H87.3888L87.2894 15.1451C86.6926 14.1553 85.383 13.5327 84.0071 13.5327C81.0067 13.5167 78.6528 15.3048 78.6528 18.7211C78.6528 22.2013 80.9072 24.0053 83.9574 23.9894C85.1012 23.9734 86.7092 23.4146 87.2894 22.2492L87.422 23.702H89.8256V13.8041ZM81.2084 18.7521C81.2084 20.6359 82.5678 21.7693 84.2586 21.7693C88.2702 21.7693 88.2702 15.7667 84.2586 15.7667C82.5678 15.7508 81.2084 16.8523 81.2084 18.7521ZM98.8316 18.4004V23.7005V23.7165H101.368V18.4163C101.368 17.1073 102.23 15.9578 103.606 15.9578C104.982 15.9578 105.545 17.0594 105.545 18.3684V23.7165H108.098V18.3684C108.098 15.3991 106.656 13.6749 103.738 13.6749C102.396 13.6749 101.202 14.074 100.29 15.4789C99.7102 14.106 98.467 13.627 97.2403 13.627C96.2456 13.627 95.0687 13.9942 94.5216 15L94.3393 13.7867H91.9854V23.7005H94.5382V18.4004C94.5382 17.0913 95.3505 15.9099 96.7264 15.9099C98.1188 15.9099 98.8316 17.0913 98.8316 18.4004ZM110.467 27.8469V13.7983H112.838L113.004 15.1712C113.799 14.0697 115.175 13.5907 116.336 13.5907C119.502 13.5907 121.607 15.8577 121.607 18.7791C121.607 21.6687 119.701 23.9676 116.418 23.9676C115.341 23.9676 113.733 23.6483 113.004 22.5627V27.8629H110.467V27.8469ZM116.151 15.9576C117.991 15.9576 119.069 17.2187 119.069 18.7673C119.069 20.3158 117.892 21.577 116.151 21.577C114.427 21.577 113.234 20.3158 113.234 18.7673C113.234 17.2187 114.311 15.9576 116.151 15.9576Z" fill="#0A6E5C"/>
<path d="M129.256 10.3525V24.2122H126.488V10.3525H129.256Z" fill="#0A6E5C"/>
<path d="M138.239 13.1794C139.495 13.1794 140.496 13.5917 141.242 14.4162C141.988 15.2407 142.361 16.3989 142.361 17.8909V24.2122H139.613V18.205C139.613 17.3413 139.39 16.6738 138.945 16.2026C138.5 15.7184 137.892 15.4763 137.12 15.4763C136.334 15.4763 135.706 15.7315 135.235 16.2419C134.764 16.7523 134.528 17.4852 134.528 18.4406V24.2122H131.76V13.3364H134.528V15.5155C134.816 14.7826 135.287 14.2133 135.942 13.8076C136.609 13.3888 137.375 13.1794 138.239 13.1794Z" fill="#0A6E5C"/>
<path d="M148.546 13.199C149.868 13.199 150.928 13.5328 151.727 14.2002C152.525 14.8677 153.022 15.7577 153.219 16.8701H150.627C150.523 16.3466 150.287 15.9278 149.921 15.6137C149.554 15.2996 149.076 15.1425 148.488 15.1425C148.016 15.1425 147.65 15.2538 147.388 15.4763C147.126 15.6988 146.996 15.9998 146.996 16.3793C146.996 16.6803 147.1 16.9225 147.31 17.1057C147.519 17.2889 147.781 17.4329 148.095 17.5376C148.409 17.6423 148.861 17.7666 149.449 17.9106C150.274 18.0938 150.941 18.2901 151.452 18.4995C151.975 18.6958 152.42 19.0165 152.787 19.4614C153.166 19.8933 153.356 20.4823 153.356 21.2283C153.356 22.1575 152.99 22.91 152.257 23.4859C151.537 24.0617 150.562 24.3497 149.332 24.3497C147.918 24.3497 146.786 24.0356 145.935 23.4074C145.085 22.7661 144.568 21.8565 144.385 20.6786H147.035C147.1 21.2152 147.336 21.6405 147.742 21.9546C148.147 22.2556 148.677 22.4062 149.332 22.4062C149.803 22.4062 150.163 22.2949 150.411 22.0724C150.66 21.8368 150.784 21.5358 150.784 21.1694C150.784 20.8553 150.673 20.6001 150.451 20.4038C150.241 20.2074 149.973 20.0569 149.646 19.9522C149.332 19.8475 148.88 19.7232 148.291 19.5792C147.48 19.396 146.819 19.2128 146.308 19.0296C145.811 18.8332 145.379 18.5257 145.013 18.1069C144.659 17.6881 144.483 17.1122 144.483 16.3793C144.483 15.437 144.843 14.6714 145.562 14.0824C146.282 13.4935 147.277 13.199 148.546 13.199Z" fill="#0A6E5C"/>
<path d="M161.229 21.8368V24.2122H159.776C158.559 24.2122 157.623 23.9178 156.969 23.3288C156.327 22.7399 156.007 21.7583 156.007 20.3841V15.6726H154.495V13.3364H156.007V10.6469H158.775V13.3364H161.209V15.6726H158.775V20.4234C158.775 20.9469 158.879 21.3133 159.089 21.5227C159.298 21.7321 159.652 21.8368 160.149 21.8368H161.229Z" fill="#0A6E5C"/>
<path d="M167.48 13.199C168.397 13.199 169.182 13.415 169.836 13.8469C170.491 14.2788 170.955 14.8612 171.23 15.5941V13.3364H173.978V24.2122H171.23V21.935C170.955 22.6679 170.491 23.2568 169.836 23.7018C169.182 24.1337 168.397 24.3497 167.48 24.3497C166.564 24.3497 165.74 24.1272 165.007 23.6822C164.274 23.2372 163.698 22.5959 163.279 21.7583C162.874 20.9076 162.671 19.913 162.671 18.7743C162.671 17.6357 162.874 16.6476 163.279 15.81C163.698 14.9593 164.274 14.3115 165.007 13.8665C165.74 13.4215 166.564 13.199 167.48 13.199ZM168.344 15.6137C167.48 15.6137 166.787 15.8951 166.263 16.4578C165.74 17.0206 165.478 17.7928 165.478 18.7743C165.478 19.7559 165.74 20.5281 166.263 21.0908C166.787 21.6405 167.48 21.9154 168.344 21.9154C169.182 21.9154 169.869 21.634 170.406 21.0712C170.955 20.4954 171.23 19.7297 171.23 18.7743C171.23 17.8059 170.955 17.0402 170.406 16.4775C169.869 15.9016 169.182 15.6137 168.344 15.6137Z" fill="#0A6E5C"/>
<path d="M182.965 13.1794C184.222 13.1794 185.223 13.5917 185.969 14.4162C186.715 15.2407 187.088 16.3989 187.088 17.8909V24.2122H184.34V18.205C184.34 17.3413 184.117 16.6738 183.672 16.2026C183.227 15.7184 182.619 15.4763 181.846 15.4763C181.061 15.4763 180.433 15.7315 179.962 16.2419C179.491 16.7523 179.255 17.4852 179.255 18.4406V24.2122H176.487V13.3364H179.255V15.5155C179.543 14.7826 180.014 14.2133 180.668 13.8076C181.336 13.3888 182.102 13.1794 182.965 13.1794Z" fill="#0A6E5C"/>
<path d="M195.334 21.8368V24.2122H193.882C192.664 24.2122 191.729 23.9178 191.074 23.3288C190.433 22.7399 190.112 21.7583 190.112 20.3841V15.6726H188.601V13.3364H190.112V10.6469H192.88V13.3364H195.315V15.6726H192.88V20.4234C192.88 20.9469 192.985 21.3133 193.195 21.5227C193.404 21.7321 193.757 21.8368 194.255 21.8368H195.334Z" fill="#0A6E5C"/>
<path d="M17.8946 20.2668L25.7142 27.7975L19.4696 33.8113C18.5992 34.6496 17.1762 34.6496 16.3058 33.8113L0.652785 18.7368C-0.217595 17.8986 -0.217595 16.5281 0.652785 15.6899L16.3058 0.628661C17.1762 -0.209554 18.5992 -0.209554 19.4696 0.628661L25.7142 6.64252L17.8946 14.1732C16.1539 15.8496 16.1539 18.5904 17.8946 20.2668Z" fill="#56BE89"/>
<path d="M35.1201 18.7335L27.3005 26.2641L19.4809 18.7335C18.6105 17.8953 18.6105 16.5249 19.4809 15.6866L27.3005 8.15601L35.1201 15.6866C35.9905 16.5382 35.9905 17.8953 35.1201 18.7335Z" fill="#56BE89"/>
<path d="M53.9364 18.7368L38.2834 33.8113C37.413 34.6496 35.99 34.6496 35.1196 33.8113L28.875 27.7975L36.6946 20.2668C38.4354 18.5904 38.4354 15.8629 36.6946 14.1732L28.875 6.64252L35.1196 0.628661C35.99 -0.209554 37.413 -0.209554 38.2834 0.628661L53.9364 15.7032C54.8068 16.5414 54.8068 17.8986 53.9364 18.7368Z" fill="#31335D"/>
</svg>
