<svg viewBox="0 0 124 41" fill="none" xmlns="http://www.w3.org/2000/svg">
<g filter="url(#filter0_d)">
<path fill-rule="evenodd" clip-rule="evenodd" d="M78.1631 22.4538H75.069L71.0327 18.007H68.5197V22.4538H65.9126V9.11328C67.012 9.11328 68.1075 9.11706 69.2029 9.12084C70.2984 9.12463 71.3939 9.12841 72.4933 9.12841C75.7601 9.14353 77.472 11.246 77.472 13.545C77.472 15.3752 76.6082 17.2205 73.9696 17.7347L78.1631 22.2875V22.4538ZM68.5338 11.4749V15.7403H72.5073C74.1721 15.7403 74.8789 14.6815 74.8789 13.6076C74.8789 12.5488 74.1407 11.4749 72.5073 11.4749H68.5338ZM89.1073 13.0776H86.7986L86.7043 14.3481C86.1389 13.4104 84.8982 12.8205 83.5946 12.8205C80.7518 12.8054 78.5216 14.4994 78.5216 17.7362C78.5216 21.0335 80.6576 22.7427 83.5475 22.7276C84.6312 22.7125 86.1546 22.1831 86.7043 21.0789L86.83 22.4553H89.1073V13.0776ZM80.942 17.7659C80.942 19.5506 82.2299 20.6245 83.8318 20.6245C87.6326 20.6245 87.6326 14.9374 83.8318 14.9374C82.2299 14.9223 80.942 15.9659 80.942 17.7659ZM97.6376 17.4326V22.4542V22.4693H100.041V17.4477C100.041 16.2074 100.857 15.1184 102.161 15.1184C103.464 15.1184 103.998 16.162 103.998 17.4023V22.4693H106.417V17.4023C106.417 14.589 105.051 12.9555 102.286 12.9555C101.014 12.9555 99.8835 13.3336 99.0197 14.6646C98.47 13.3638 97.2921 12.9101 96.1298 12.9101C95.1875 12.9101 94.0724 13.258 93.5541 14.2109L93.3813 13.0613H91.1511V22.4542H93.5698V17.4326C93.5698 16.1923 94.3394 15.073 95.643 15.073C96.9622 15.073 97.6376 16.1923 97.6376 17.4326ZM108.66 26.3856V13.0753H110.906L111.063 14.3761C111.817 13.3324 113.121 12.8787 114.22 12.8787C117.22 12.8787 119.214 15.0265 119.214 17.7944C119.214 20.5321 117.408 22.7102 114.299 22.7102C113.278 22.7102 111.754 22.4076 111.063 21.3791V26.4007H108.66V26.3856ZM114.048 15.1196C115.791 15.1196 116.812 16.3145 116.812 17.7817C116.812 19.2489 115.697 20.4438 114.048 20.4438C112.415 20.4438 111.284 19.2489 111.284 17.7817C111.284 16.3145 112.305 15.1196 114.048 15.1196Z" fill="#292840"/>
<path d="M20.9542 19.2017L28.3628 26.3366L22.4464 32.0344C21.6217 32.8285 20.2735 32.8285 19.4489 32.0344L4.61848 17.7521C3.79384 16.9579 3.79384 15.6595 4.61848 14.8653L19.4489 0.595622C20.2735 -0.198541 21.6217 -0.198541 22.4464 0.595622L28.3628 6.29342L20.9542 13.4283C19.3049 15.0166 19.3049 17.6134 20.9542 19.2017Z" fill="#56BE89"/>
<path d="M37.2751 17.752L29.8665 24.8869L22.4578 17.752C21.6332 16.9579 21.6332 15.6595 22.4578 14.8653L29.8665 7.73047L37.2751 14.8653C38.0998 15.6721 38.0998 16.9579 37.2751 17.752Z" fill="#56BE89"/>
<path d="M55.1037 17.7521L40.2733 32.0344C39.4487 32.8285 38.1005 32.8285 37.2758 32.0344L31.3594 26.3366L38.768 19.2017C40.4173 17.6134 40.4173 15.0292 38.768 13.4283L31.3594 6.29342L37.2758 0.595622C38.1005 -0.198541 39.4487 -0.198541 40.2733 0.595622L55.1037 14.8779C55.9283 15.6721 55.9283 16.9579 55.1037 17.7521Z" fill="#31335D"/>
</g>
<defs>
<filter id="filter0_d" x="0" y="0" width="123.214" height="40.63" filterUnits="userSpaceOnUse" color-interpolation-filters="sRGB">
<feFlood flood-opacity="0" result="BackgroundImageFix"/>
<feColorMatrix in="SourceAlpha" type="matrix" values="0 0 0 0 0 0 0 0 0 0 0 0 0 0 0 0 0 0 127 0"/>
<feOffset dy="4"/>
<feGaussianBlur stdDeviation="2"/>
<feColorMatrix type="matrix" values="0 0 0 0 0 0 0 0 0 0 0 0 0 0 0 0 0 0 0.25 0"/>
<feBlend mode="normal" in2="BackgroundImageFix" result="effect1_dropShadow"/>
<feBlend mode="normal" in="SourceGraphic" in2="effect1_dropShadow" result="shape"/>
</filter>
</defs>
</svg>
