<svg xmlns="http://www.w3.org/2000/svg" width="299" height="102" viewBox="0 0 299 102">
  <g fill="none">
    <path fill="#292840" d="M30.5769759,34.7217456 L22.8743789,34.7217456 L12.8765637,23.2647386 L6.65224286,23.2647386 L6.65224286,34.7217456 L0.194510025,34.7217456 L0.194510025,0.350724704 C5.64079072,0.350724704 11.0481694,0.389694116 16.4944502,0.389694116 C24.5860672,0.428663527 28.8263857,5.84541173 28.8263857,11.7687623 C28.8263857,16.4840611 26.6867755,21.2383293 20.1512385,22.5632893 L30.538074,34.2930822 L30.538074,34.7217456 L30.5769759,34.7217456 Z M6.69114486,6.42995291 L6.69114486,17.419327 L16.5333521,17.419327 C20.6569646,17.419327 22.4075549,14.6914682 22.4075549,11.9246399 C22.4075549,9.19678112 20.5791606,6.42995291 16.5333521,6.42995291 L6.69114486,6.42995291 Z M51.9341766,10.5607105 L57.6527715,10.5607105 L57.6527715,34.7217456 L52.0119808,34.7217456 L51.7007646,31.1755292 C50.3391945,34.0202963 46.5657,35.3842256 43.8814617,35.4231951 C36.7234926,35.4621646 31.4328201,31.058621 31.4328201,22.5632893 C31.4328201,14.2238352 36.9569048,9.85926113 43.9981677,9.89823054 C47.2270341,9.89823054 50.3002925,11.4180376 51.7007646,13.8341411 L51.9341766,10.5607105 Z M37.4237288,22.6412281 C37.4237288,27.2396187 40.6136932,30.0064469 44.5816977,30.0064469 C53.9959829,30.0064469 53.9959829,15.3539481 44.5816977,15.3539481 C40.6136932,15.3149787 37.4237288,18.0038681 37.4237288,22.6412281 Z M78.7765601,34.7217456 L78.7765601,21.7839011 C78.7765601,18.5884094 77.1037738,15.7046729 73.8360055,15.7046729 C70.6071391,15.7046729 68.7009409,18.5884094 68.7009409,21.7839011 L68.7009409,34.7217456 L62.710032,34.7217456 L62.710032,10.5217411 L68.2341167,10.5217411 L68.6620388,13.4834164 C69.945805,11.0283435 72.7078474,10.132047 75.0419677,10.132047 C77.920716,10.132047 80.8383663,11.3011294 82.1999366,14.6524987 C84.3395468,11.2231905 87.1404911,10.2489552 90.2915536,10.2489552 C97.1383065,10.2489552 100.522781,14.4576517 100.522781,21.7059623 L100.522781,34.7607151 L94.5318722,34.7607151 L94.5318722,21.7059623 C94.5318722,18.5104704 93.2092039,15.8215811 89.9803375,15.8215811 C86.7514711,15.8215811 84.7285669,18.6273787 84.7285669,21.8228705 L84.7285669,34.7607151 L78.7765601,34.7607151 L78.7765601,34.7217456 Z M106.085768,44.8537927 L106.085768,10.5607105 L111.648754,10.5607105 L112.037774,13.9120799 C113.905071,11.2231905 117.133937,10.0541082 119.857077,10.0541082 C127.28736,10.0541082 132.227915,15.5877646 132.227915,22.719167 C132.227915,29.7726304 127.754184,35.3842256 120.051588,35.3842256 C117.522957,35.3842256 113.749463,34.6048374 112.037774,31.9549175 L112.037774,44.8927622 L106.085768,44.8927622 L106.085768,44.8537927 Z M126.275908,22.6801975 C126.275908,18.9001646 123.747278,15.8215811 119.429155,15.8215811 C115.111033,15.8215811 112.582403,18.9001646 112.582403,22.6801975 C112.582403,26.4602305 115.383347,29.538814 119.429155,29.538814 C123.513866,29.538814 126.275908,26.4602305 126.275908,22.6801975 Z" transform="translate(166.11 28.057)"/>
    <path fill="#56BE89" d="M50.7671165,59.5842303 L72.7856514,81.6409172 L55.2019451,99.2550913 C52.7511188,101.710164 48.7442123,101.710164 46.2933859,99.2550913 L2.21741429,55.1027479 C-0.233412031,52.647675 -0.233412031,48.6338257 2.21741429,46.1787528 L46.2933859,2.06537882 C48.7442123,-0.389694116 52.7511188,-0.389694116 55.2019451,2.06537882 L72.7856514,19.6795528 L50.7671165,41.7362398 C45.8654638,46.6463856 45.8654638,54.6740845 50.7671165,59.5842303 Z"/>
    <path fill="#56BE89" d="M99.2779168,55.1027479 L77.2593819,77.1594349 L55.240847,55.1027479 C52.7900209,52.647675 52.7900209,48.6338257 55.240847,46.1787528 L77.2593819,24.1220658 L99.2779168,46.1787528 C101.728743,48.672795 101.728743,52.647675 99.2779168,55.1027479 Z"/>
    <path fill="#31335D" d="M152.262448,55.1027479 L108.186476,99.2550913 C105.73565,101.710164 101.728743,101.710164 99.2779168,99.2550913 L81.6942105,81.6409172 L103.712745,59.5842303 C108.614398,54.6740845 108.614398,46.6853551 103.712745,41.7362398 L81.6942105,19.6795528 L99.2779168,2.06537882 C101.728743,-0.389694116 105.73565,-0.389694116 108.186476,2.06537882 L152.262448,46.2177221 C154.713274,48.672795 154.713274,52.647675 152.262448,55.1027479 Z"/>
  </g>
</svg>
